<?xml version="1.0" standalone="no"?>
<!DOCTYPE svg PUBLIC "-//W3C//DTD SVG 20010904//EN"
 "http://www.w3.org/TR/2001/REC-SVG-20010904/DTD/svg10.dtd">
<svg version="1.0" xmlns="http://www.w3.org/2000/svg"
 width="1243.000000pt" height="349.000000pt" viewBox="0 0 1243.000000 349.000000"
 preserveAspectRatio="xMidYMid meet">

<g transform="translate(0.000000,349.000000) scale(0.100000,-0.100000)"
fill="#000000" stroke="none">
<path d="M2695 3009 c-43 -12 -102 -64 -125 -110 -14 -26 -20 -58 -20 -104 0
-136 91 -225 230 -225 112 1 220 108 220 218 0 84 -60 179 -134 213 -43 20
-120 23 -171 8z"/>
<path d="M3622 3009 c-44 -13 -116 -86 -132 -133 -7 -21 -10 -66 -8 -102 5
-82 41 -136 117 -176 153 -80 324 24 324 197 0 159 -141 260 -301 214z"/>
<path d="M7336 3012 c-3 -6 -177 -392 -386 -858 -210 -467 -400 -882 -423
-923 -53 -94 -121 -156 -193 -177 -46 -13 -54 -19 -54 -40 l0 -24 330 0 330 0
0 24 c0 21 -6 25 -47 30 -107 15 -142 27 -172 62 -59 66 -50 138 39 339 l49
110 348 3 348 2 69 -162 c80 -189 98 -242 90 -273 -13 -53 -82 -85 -181 -85
-50 0 -53 -2 -53 -25 l0 -25 480 0 480 0 0 24 c0 19 -7 26 -32 31 -68 14 -115
52 -164 131 -28 44 -211 448 -435 958 -231 523 -394 882 -403 884 -8 2 -17 -1
-20 -6z m-26 -1005 c78 -180 140 -330 138 -333 -3 -2 -136 -3 -295 -2 l-290 3
134 300 c74 165 141 315 149 334 8 19 16 32 18 30 2 -2 68 -152 146 -332z"/>
<path d="M10372 3009 c-44 -13 -116 -86 -132 -133 -7 -21 -10 -66 -8 -102 5
-82 41 -136 117 -176 153 -80 324 24 324 197 0 159 -141 260 -301 214z"/>
<path d="M70 2955 c0 -24 3 -25 58 -25 31 0 74 -5 95 -11 53 -14 105 -63 117
-109 7 -26 10 -312 8 -847 -3 -788 -4 -809 -23 -841 -29 -49 -85 -74 -177 -80
-74 -4 -78 -6 -78 -28 l0 -24 520 0 520 0 0 25 c0 23 -3 25 -51 25 -126 0
-203 48 -219 139 -6 29 -10 215 -10 412 l0 359 350 0 350 0 0 -372 c0 -205 -5
-391 -10 -413 -11 -49 -63 -99 -117 -114 -21 -6 -64 -11 -95 -11 -55 0 -58 -1
-58 -25 l0 -25 520 0 520 0 0 25 c0 24 -3 25 -53 25 -117 0 -199 48 -218 126
-11 51 -11 1577 1 1628 19 86 79 126 197 134 69 4 73 6 73 28 l0 24 -520 0
-520 0 0 -25 c0 -24 3 -25 53 -25 113 0 196 -46 217 -121 6 -19 10 -184 10
-381 l0 -348 -350 0 -350 0 0 333 c1 182 5 352 9 376 18 89 77 131 198 139 69
4 73 6 73 28 l0 24 -520 0 -520 0 0 -25z"/>
<path d="M4805 2394 c-208 -44 -342 -149 -441 -346 -101 -201 -112 -483 -27
-695 54 -134 160 -266 263 -325 98 -58 163 -72 320 -72 131 0 152 2 218 26 97
35 158 76 236 158 70 75 134 190 162 295 24 90 30 311 11 411 -30 160 -110
311 -210 399 -67 59 -192 121 -282 140 -65 14 -203 18 -250 9z m195 -116 c60
-30 105 -118 120 -231 13 -100 13 -527 0 -677 -14 -158 -32 -215 -84 -266 -68
-69 -155 -72 -226 -8 -84 76 -106 215 -97 629 7 296 19 400 56 473 47 93 141
125 231 80z"/>
<path d="M9095 2394 c-295 -43 -499 -202 -500 -390 0 -80 32 -131 106 -168 87
-43 183 -34 242 22 42 39 57 75 57 131 0 43 -6 59 -45 115 -52 76 -56 107 -18
142 30 28 109 54 162 54 80 -1 163 -65 177 -138 4 -20 8 -97 8 -171 l1 -134
-190 -96 c-214 -108 -376 -210 -431 -274 -20 -23 -50 -70 -67 -105 -25 -54
-30 -76 -30 -142 0 -66 4 -85 29 -130 55 -102 143 -147 268 -137 113 8 225 61
359 171 32 26 60 46 61 44 2 -2 9 -25 16 -53 20 -71 88 -138 159 -155 72 -17
174 -8 236 21 48 22 153 117 175 158 17 32 -19 46 -63 25 -43 -20 -84 -12 -96
19 -5 12 -11 216 -14 452 -6 492 -7 499 -83 584 -103 114 -191 152 -369 156
-66 2 -133 1 -150 -1z m195 -873 l0 -219 -35 -31 c-46 -40 -107 -71 -140 -71
-77 0 -136 60 -143 145 -7 87 27 160 117 253 48 50 170 142 189 142 9 0 12
-50 12 -219z"/>
<path d="M11585 2394 c-295 -43 -499 -202 -500 -390 0 -80 32 -131 106 -168
87 -43 183 -34 242 22 42 39 57 75 57 131 0 43 -6 59 -45 115 -52 76 -56 107
-18 142 30 28 109 54 162 54 80 -1 163 -65 177 -138 4 -20 8 -97 8 -171 l1
-134 -190 -96 c-214 -108 -376 -210 -431 -274 -20 -23 -50 -70 -67 -105 -25
-54 -30 -76 -30 -142 0 -66 4 -85 29 -130 55 -102 143 -147 268 -137 113 8
225 61 359 171 32 26 60 46 61 44 2 -2 9 -25 16 -53 20 -71 88 -138 159 -155
72 -17 174 -8 236 21 48 22 153 117 175 158 17 32 -19 46 -63 25 -43 -20 -84
-12 -96 19 -5 12 -11 216 -14 452 -6 492 -7 499 -83 584 -103 114 -191 152
-369 156 -66 2 -133 1 -150 -1z m195 -873 l0 -219 -35 -31 c-46 -40 -107 -71
-140 -71 -77 0 -136 60 -143 145 -7 87 27 160 117 253 48 50 170 142 189 142
9 0 12 -50 12 -219z"/>
<path d="M2400 2336 c0 -20 7 -25 38 -31 59 -11 90 -35 109 -85 16 -41 18 -92
18 -535 0 -269 -4 -507 -8 -527 -12 -56 -49 -94 -107 -109 -42 -11 -50 -17
-50 -36 l0 -23 370 0 370 0 0 23 c0 19 -8 25 -49 36 -56 14 -87 43 -101 92 -6
20 -10 271 -10 626 l0 593 -290 0 -290 0 0 -24z"/>
<path d="M3340 2336 c0 -20 7 -26 49 -36 59 -14 87 -38 100 -87 7 -25 11 -268
11 -688 0 -492 4 -689 15 -810 16 -175 11 -223 -28 -250 -31 -22 -62 -19 -94
9 -27 23 -28 28 -29 118 0 103 -10 130 -54 153 -65 33 -141 12 -185 -52 -30
-45 -35 -135 -9 -186 49 -97 140 -145 291 -154 258 -16 431 103 484 332 8 35
13 302 16 863 l4 812 -285 0 -286 0 0 -24z"/>
<path d="M10090 2336 c0 -20 7 -26 49 -36 59 -14 87 -38 100 -87 7 -25 11
-268 11 -688 0 -492 4 -689 15 -810 16 -175 11 -223 -28 -250 -31 -22 -62 -19
-94 9 -27 23 -28 28 -29 118 0 103 -10 130 -54 153 -65 33 -141 12 -185 -52
-30 -45 -35 -135 -9 -186 49 -97 140 -145 291 -154 258 -16 431 103 484 332 8
35 13 302 16 863 l4 812 -285 0 -286 0 0 -24z"/>
</g>
</svg>
